<svg xmlns="http://www.w3.org/2000/svg" viewBox="0 0 220 48" role="img" aria-labelledby="title desc">
  <title id="title">CampusLoop</title>
  <desc id="desc">A circular loop mark around a campus book icon with the CampusLoop wordmark.</desc>
  <defs>
    <linearGradient id="loopGradient" x1="6" y1="8" x2="46" y2="42" gradientUnits="userSpaceOnUse">
      <stop offset="0" stop-color="#3f1d82"/>
      <stop offset="1" stop-color="#1f7a66"/>
    </linearGradient>
  </defs>
  <g fill="none" fill-rule="evenodd">
    <g transform="translate(2 2)">
      <circle cx="22" cy="22" r="20" fill="#f5f1ff"/>
      <path d="M34.5 15.4a14.2 14.2 0 0 0-23.8-1.8" stroke="url(#loopGradient)" stroke-width="3.5" stroke-linecap="round"/>
      <path d="M9.5 28.6a14.2 14.2 0 0 0 23.8 1.8" stroke="url(#loopGradient)" stroke-width="3.5" stroke-linecap="round"/>
      <path d="M32.8 9.4l2.6 6.6-7 .8" stroke="#3f1d82" stroke-width="3.5" stroke-linecap="round" stroke-linejoin="round"/>
      <path d="M11.2 34.6L8.6 28l7-.8" stroke="#1f7a66" stroke-width="3.5" stroke-linecap="round" stroke-linejoin="round"/>
      <path d="M15 17.4c2.2-1.1 4.5-1.1 7 0 2.5-1.1 4.8-1.1 7 0v12.2c-2.2-1-4.5-1-7 0-2.5-1-4.8-1-7 0V17.4Z" fill="#fff" stroke="#3f2a44" stroke-width="2" stroke-linejoin="round"/>
      <path d="M22 17.8v11.4" stroke="#3f2a44" stroke-width="1.6" stroke-linecap="round"/>
    </g>
    <text x="58" y="31" fill="#3f2a44" font-family="DM Sans, Inter, Arial, sans-serif" font-size="24" font-weight="700" letter-spacing="0">CampusLoop</text>
  </g>
</svg>
